<svg xmlns="http://www.w3.org/2000/svg" width="366" height="366" viewBox="0 0 366 366" fill="#fff">
<path d="M0 179.1C2 80.3 82.2 0 182 0C281.8 0 363 80.2 365 179.1H119.4C121.4 145.8 148.8 119.4 182 119.4C205.5 119.4 225.1 132.1 236.8 149.7H300.4C285.7 98.8 238.8 60.7 182 60.7C115.5 60.7 61.6 113.5 60.7 179.1H0Z" fill="#2D54A4"/>
<path d="M365 185C363 284.8 281.8 365.1 182 365.1C82.2 365.1 1.9 284.9 0 185H60.7C61.7 251.5 115.5 304.4 182 304.4C238.8 304.4 285.7 266.2 300.4 214.4H236.8C225.1 233 205.5 245.7 182 245.7C148.7 245.7 121.3 219.3 119.4 185H365Z" fill="#0B265E"/>
</svg>