<svg xmlns="http://www.w3.org/2000/svg" width="832" height="366" viewBox="0 0 832 366" fill="none">
<path d="M439.399 137V125.3H402.199V80.2999H415.899V113.6H431.599V80.2999H444.299V113.6H451.099V137H439.399ZM457.999 125.3V80.2999H485.399V90.9999H471.699V97.7999H484.399V107.6H471.699V114.4H486.399V125.2H457.999V125.3ZM521.599 125.3V108.7H506.899V125.3H493.199V80.2999H506.899V96.8999H521.599V80.2999H535.299V125.3H521.599ZM566.599 90.9999V125.2H552.899V90.9999H540.199V80.2H579.299V90.9999H566.599ZM629.199 109.6C629.199 114.5 628.199 118.4 625.299 121.3C621.399 123.3 617.499 125.2 611.599 125.2H592.999V90.9999H581.299V80.2H606.699V95.8999H612.599C616.499 95.8999 619.399 95.8999 622.399 96.8999C624.399 97.8999 626.299 99.7999 627.299 101.8C629.199 103.7 629.199 105.7 629.199 109.6ZM615.499 110.6C615.499 108.6 614.499 107.7 613.499 106.7C612.499 105.7 611.499 104.7 609.599 104.7H606.699V115.5H609.599C611.599 115.5 612.499 115.5 613.499 114.5C614.499 113.5 615.499 111.6 615.499 110.6ZM671.299 94.8999C671.299 97.7999 670.299 100.8 668.399 103.7C667.399 105.7 665.499 107.6 662.499 108.6C659.599 110.6 655.699 110.6 652.699 110.6H647.799V125.3H635.099V80.2999H652.699C659.499 80.2999 663.499 82.3 666.399 84.2C669.299 86.1 671.299 89.9999 671.299 94.8999ZM656.599 95.8999C656.599 93.8999 656.599 92.9999 655.599 91.9999C654.599 90.9999 652.699 89.9999 650.699 89.9999H647.799V100.8H650.699C654.699 100.8 656.599 99.7999 656.599 95.8999ZM433.499 189.8C433.499 194.7 431.499 197.6 427.599 200.6C424.699 202.6 419.799 203.5 413.899 203.5C410.999 203.5 407.999 203.5 406.099 203.5C404.099 202.5 401.199 202.5 400.199 201.5V190.7C402.199 191.7 404.099 192.7 406.099 192.7C408.099 193.7 409.999 193.7 411.999 193.7C416.899 193.7 419.799 192.7 419.799 189.8C419.799 187.8 418.799 186.9 417.799 185.9C415.799 185.9 413.899 184.9 411.899 184.9H405.099V175.1H410.999C413.899 175.1 414.899 175.1 416.899 174.1C417.899 174.1 418.899 173.1 418.899 171.2C418.899 170.2 417.899 169.2 416.899 168.3C415.899 167.3 413.999 167.3 411.999 167.3C409.099 167.3 406.099 168.3 402.199 170.2V160.4C406.099 158.4 410.999 157.5 415.899 157.5C420.799 157.5 424.699 158.5 427.599 160.4C430.499 162.4 431.499 165.3 431.499 169.2C431.499 172.1 430.499 174.1 429.499 176C427.499 178 425.599 178.9 422.699 179.9C425.599 179.9 428.599 180.9 430.499 182.8C432.499 184.9 433.499 187.9 433.499 189.8ZM466.799 202.6L464.799 194.8H451.099L449.099 202.6H435.399L450.099 158.6H466.699L481.399 202.6H466.799ZM457.999 168.3C457.999 168.3 457.999 169.3 457.999 170.3C456.999 172.3 455.999 177.1 454.099 185H461.899L458.999 173.3C458.999 171.2 458.999 170.3 457.999 168.3ZM517.699 169.3V202.6H503.999V158.6H532.399V169.4H517.699V169.3ZM574.399 173.2C574.399 176.1 573.399 179.1 572.399 181C570.399 183.9 568.499 185.9 565.599 186.9C562.699 187.9 559.699 188.9 555.799 188.9H551.899V202.6H538.199V158.6H556.799C562.699 158.6 567.599 159.6 570.499 162.5C573.399 164.4 574.399 168.3 574.399 173.2ZM560.699 174.2C560.699 172.2 559.699 170.3 558.699 169.3C557.699 168.3 555.799 168.3 553.799 168.3H551.799V179.1H554.699C558.799 179.1 560.699 177.1 560.699 174.2ZM607.699 202.6L605.699 194.8H591.999L589.999 202.6H576.399L591.099 158.6H607.699L622.399 202.6H607.699ZM598.899 168.3C598.899 168.3 598.899 169.3 598.899 170.3C597.899 172.3 596.899 177.1 594.999 185H603.799L599.899 173.3C599.899 171.2 599.899 170.3 598.899 168.3ZM660.499 215.3V202.6H635.099V215.3H623.399V192.8H628.299C633.199 183 636.099 171.3 637.099 158.6H665.399V192.8H672.199V215.3H660.499ZM652.699 169.3H647.799C646.799 177.1 644.899 185 640.999 192.8H652.699V169.3ZM711.399 201.6C707.499 203.6 703.599 203.6 698.699 203.6C693.799 203.6 689.899 202.6 686.999 200.7C683.099 199.7 680.199 196.8 679.199 193.9C677.199 190 676.299 186.1 676.299 182.2C676.299 177.3 677.299 173.4 679.199 169.5C681.099 165.6 684.099 162.7 687.999 160.7C690.899 158.7 695.799 157.8 700.699 157.8C704.599 157.8 707.499 158.8 711.499 159.8V171.5C710.499 171.5 708.599 170.5 707.599 170.5C705.599 169.5 703.699 169.5 701.699 169.5C698.799 169.5 695.799 170.5 692.899 172.4C690.899 174.4 689.999 177.3 689.999 181.2C689.999 184.1 690.999 187.1 692.899 189C695.799 191.9 697.799 192.9 701.699 192.9C704.599 192.9 708.499 191.9 711.499 190V201.6H711.399ZM742.699 202.6L732.899 184C731.899 183 731.899 182 731.899 181.1V202.6H718.199V158.6H731.899V180.1C731.899 179.1 732.899 177.2 732.899 176.2L741.699 158.6H758.399L745.699 180.1L759.399 202.6H742.699ZM789.699 202.6L787.699 194.8H774.999L772.999 202.6H758.399L773.099 158.6H789.699L804.399 202.6H789.699ZM781.899 168.3H780.899C780.899 168.3 780.899 169.3 780.899 170.3C780.899 172.3 778.899 177.1 776.999 185H785.799L782.899 173.3C781.899 171.2 781.899 170.3 781.899 168.3ZM443.299 280.8V256.3C443.299 254.3 443.299 251.4 443.299 249.5V246.6C442.299 250.5 442.299 252.5 441.299 254.4L435.399 280.8H422.699L415.899 254.4C415.899 253.4 414.899 251.5 413.899 246.6C413.899 254.4 413.899 258.3 413.899 260.3V280.8H402.199V236.8H422.699L428.599 260.3C428.599 261.3 428.599 262.3 429.599 263.2C429.599 265.2 429.599 266.1 429.599 267.1C430.599 265.1 430.599 263.2 430.599 260.3L436.499 236.8H456.099V280.8H443.299ZM506.899 258.3C506.899 263.2 505.899 267.1 503.999 270C502.999 273.9 500.099 276.8 496.199 278.8C493.299 280.8 489.399 281.7 484.499 281.7C480.599 281.7 476.699 280.7 473.699 278.8C469.799 276.8 467.799 273.9 465.899 271C463.899 267.1 462.999 263.2 462.999 259.3C462.999 254.4 463.999 250.5 465.899 247.6C467.899 243.7 469.799 240.8 473.699 238.8C477.599 236.8 481.499 235.9 485.399 235.9C489.299 235.9 493.199 236.9 497.099 238.8C499.999 240.8 502.999 243.7 504.899 246.6C505.899 250.5 506.899 254.4 506.899 258.3ZM493.199 259.3C493.199 255.4 492.199 252.5 491.199 250.5C489.199 248.5 487.299 247.6 485.299 247.6C482.399 247.6 480.399 248.6 479.399 250.5C477.399 252.5 476.499 255.4 476.499 258.3C476.499 262.2 477.499 265.1 479.399 267.1C480.399 269.1 482.299 270 485.299 270C486.299 270 488.199 270 489.199 269C490.199 268 491.199 267 492.099 265.1C493.199 263.2 493.199 261.3 493.199 259.3ZM551.899 266.2C551.899 271.1 549.899 275 546.999 277C544.099 279.9 540.199 280.9 534.299 280.9H513.799V236.9H546.099V246.7H526.499V253.5H536.299C539.199 253.5 542.199 254.5 545.099 255.5C547.099 256.5 548.999 258.4 549.999 259.4C550.899 261.3 551.899 264.2 551.899 266.2ZM537.199 267.1C537.199 266.1 537.199 265.1 536.199 264.2C535.199 263.2 534.199 263.2 532.299 263.2H526.399V272H532.299C533.299 272 535.199 271 536.199 271C537.199 270.1 537.199 269.1 537.199 267.1ZM588.099 280.8V262.2C588.099 259.3 588.099 257.3 588.099 255.4C587.099 255.4 587.099 256.4 586.099 257.4C586.099 258.4 580.199 266.2 569.499 280.9H557.799V236.9H569.499V256.5C569.499 258.5 569.499 260.4 569.499 261.4V260.4C570.499 260.4 570.499 259.4 572.399 257.5L587.099 237H599.799V281H588.099V280.8ZM628.199 247.6C627.199 256.4 626.199 262.3 625.299 266.2C625.299 270.1 623.299 273 622.399 275C621.399 277 619.499 278.9 618.499 279.9C616.499 280.9 614.599 281.9 611.699 281.9C609.699 281.9 607.799 280.9 605.799 280.9V270.1C606.799 270.1 606.799 271.1 607.799 271.1C608.799 271.1 610.699 270.1 611.699 269.1C611.699 268.1 612.699 266.2 613.699 263.2C614.699 260.3 615.699 257.3 615.699 252.4C616.699 247.5 617.699 242.6 617.699 236.7H648.999V280.7H635.299V247.4H628.199V247.6ZM685.999 280.8V264.2H671.299V280.8H657.599V236.8H671.299V253.4H685.999V236.8H699.699V280.8H685.999ZM750.599 258.3C750.599 263.2 749.599 267.1 747.699 270C745.699 273.9 743.799 276.8 739.899 278.8C735.999 280.8 733.099 281.7 728.199 281.7C724.299 281.7 720.399 280.7 717.399 278.8C713.499 276.8 710.599 273.9 708.599 271C706.599 267.1 706.599 263.2 706.599 259.3C706.599 254.4 707.599 250.5 708.599 247.6C710.599 243.7 713.499 240.8 717.399 238.8C720.299 236.8 724.199 235.9 729.099 235.9C732.999 235.9 736.899 236.9 739.899 238.8C743.799 240.8 745.799 243.7 747.699 246.6C749.599 250.5 750.599 254.4 750.599 258.3ZM736.899 259.3C736.899 255.4 735.899 252.5 734.899 250.5C732.899 248.5 730.999 247.6 728.999 247.6C726.099 247.6 724.099 248.6 722.199 250.5C721.199 252.5 720.199 255.4 720.199 258.3C720.199 262.2 721.199 265.1 722.199 267.1C724.199 269.1 726.099 270 728.099 270C730.099 270 730.999 270 732.999 269C733.999 268 734.999 267 735.899 265.1C735.899 263.2 736.899 261.3 736.899 259.3ZM789.699 279.9C786.799 280.9 781.899 281.9 776.999 281.9C772.099 281.9 768.199 280.9 765.299 279C761.399 277 759.399 275.1 757.499 271.2C755.499 268.3 754.599 264.4 754.599 259.5C754.599 255.6 755.599 250.7 757.499 247.8C759.499 243.9 762.399 241 766.299 239C770.199 237 774.099 236.1 778.999 236.1C782.899 236.1 786.799 236.1 789.799 237.1V249.8C788.799 248.8 787.799 248.8 785.899 247.8C783.899 247.8 781.999 247.8 779.999 247.8C777.099 247.8 774.099 248.8 772.199 250.7C770.199 252.7 768.299 255.6 768.299 258.5C768.299 262.4 770.299 265.3 772.199 267.3C774.099 269.3 777.099 270.2 779.999 270.2C783.899 270.2 786.799 269.2 789.799 268.2V279.9H789.699ZM819.099 246.6V280.8H806.399V246.6H793.699V236.8H831.899V246.6H819.099Z" fill="#040D21"/>
<path d="M0 179.1C2 80.3 82.2 0 182 0C281.8 0 363 80.2 365 179.1H119.4C121.4 145.8 148.8 119.4 182 119.4C205.5 119.4 225.1 132.1 236.8 149.7H300.4C285.7 98.8 238.8 60.7 182 60.7C115.5 60.7 61.6 113.5 60.7 179.1H0Z" fill="#2D54A4"/>
<path d="M365 185C363 284.8 281.8 365.1 182 365.1C82.2 365.1 1.9 284.9 0 185H60.7C61.7 251.5 115.5 304.4 182 304.4C238.8 304.4 285.7 266.2 300.4 214.4H236.8C225.1 233 205.5 245.7 182 245.7C148.7 245.7 121.3 219.3 119.4 185H365Z" fill="#0B265E"/>
</svg>