<svg xmlns="http://www.w3.org/2000/svg" width="40" height="40" fill="none"><circle cx="20" cy="20" r="20" fill="#fff"/><path fill="#293B91" d="M9.608 12.385h4.002l6.388 4.49 6.388-4.49h3.989v9.693h-3.947V16.68l-6.416 4.589h-.056l-6.387-4.533v5.356H9.594v-9.693l.014-.014Zm.042 11.604 6.262-.028 4.086 2.9 4.073-2.9 6.248.028-10.293 7.378h-.056L9.636 23.989h.014Z"/><path fill="#293B91" d="M20 35.997c-8.842 0-15.997-7.169-15.997-15.997 0-8.829 7.155-16.011 15.997-16.011 8.842 0 16.011 7.169 16.011 16.011 0 8.842-7.169 15.997-16.011 15.997ZM20 0C8.954 0 0 8.954 0 20s8.954 20 20 20 20-8.954 20-20S31.046 0 20 0Z"/></svg>